<svg xmlns="http://www.w3.org/2000/svg" fill="#ffffff" height="40" viewBox="0 -960 960 960" width="40"><path d="M524.166-95.334q-20.999 0-35.916-14.95-14.917-14.95-14.917-35.999 0-20.717 14.917-35.55 14.917-14.833 35.916-14.833h235.835v-563.335H524.166q-20.999 0-35.916-14.95-14.917-14.95-14.917-35.941 0-20.658 14.917-35.883Q503.167-862 524.166-862h235.835q42.578 0 72.289 29.71Q862-802.579 862-760.001v563.335q0 42.304-29.71 71.818-29.711 29.514-72.289 29.514H524.166ZM412.168-427.667H149.5q-21 0-35.917-14.95-14.916-14.95-14.916-36 0-20.716 14.916-35.55Q128.5-529 149.5-529h261.334l-59.461-59.461q-15.205-15.345-14.872-36.275.333-20.93 15.667-35.514 14.999-15.25 35.188-14.833 20.188.417 35.677 15.616l146.101 146.101Q584-497.924 584-477.455q0 20.47-14.833 35.455L423.575-296.408q-15.108 15.241-35.374 15.287-20.267.046-34.719-15.184-15.314-14.397-15.898-35.463-.583-21.065 14.686-36.334l59.898-59.565Z"/></svg>